# xmcd
#
# Track frame offsets:
#	150
#	11422
#	27364
#	40119
#	53783
#	64440
#	78305
#	91498
#	103595
#	121664
#	131724
#	144930
#	158422
#	177779
#	194812
#	207975
#	217843
#	232089
#	247378
#	259762
#
# Disc length: 3604 seconds
# Revision: 0
# Processed by: cddbd v1.5.2PL0 Copyright (c) Steve Scherf et al.
# Submitted via: dBpowerAMP V12.0
#
DISCID=1a0e1214
DTITLE=Hayseed Dixie - A Hillbilly Tribute To AC-DC - Mountain Love
DYEAR=2001
DGENRE=Bluegrass
TTITLE0=Highway To Hell (A Hillbilly Tribute To AC-DC)
TTITLE1=You Shook Me All Night Long (A Hillbilly Tribute To AC-DC)
TTITLE2=Dirty Deeds Done Dirt Cheap (A Hillbilly Tribute To AC-DC)
TTITLE3=Hells Bells (Tribute To AC-DC)
TTITLE4=Money Talks (A Hillbilly Tribute To AC-DC)
TTITLE5=Let's Get It Up (A Hillbilly Tribute To AC-DC)
TTITLE6=Have a Drink On Me (A Hillbilly Tribute To AC-DC)
TTITLE7=T.N.T. (A Hillbilly Tribute To AC-DC)
TTITLE8=Back In Black (A Hillbilly Tribute To AC-DC)
TTITLE9=Big Balls (A Hillbilly Tribute To AC-DC)
TTITLE10=My Best Friend's Girlfriend (Mountain Love)
TTITLE11=Centerfold (Mountain Love)
TTITLE12=Walk This Way (Mountain Love)
TTITLE13=Feel Like Making Love (Mountain Love)
TTITLE14=The Perfect Woman (Mountain Love)
TTITLE15=I Love Rock and Roll (Mountain Love)
TTITLE16=Fat Bottom Girls (Mountain Love)
TTITLE17=Big Bottom (Mountain Love)
TTITLE18=Cat Scratch Fever (Mountain Love)
TTITLE19=I'm Keeping Your Poop (Mountain Love)
EXTD=
EXTT0=
EXTT1=
EXTT2=
EXTT3=
EXTT4=
EXTT5=
EXTT6=
EXTT7=
EXTT8=
EXTT9=
EXTT10=
EXTT11=
EXTT12=
EXTT13=
EXTT14=
EXTT15=
EXTT16=
EXTT17=
EXTT18=
EXTT19=
PLAYORDER=
